<?xml version="1.0" standalone="no"?>
<!DOCTYPE svg PUBLIC "-//W3C//DTD SVG 20010904//EN"
 "http://www.w3.org/TR/2001/REC-SVG-20010904/DTD/svg10.dtd">
<svg version="1.0" xmlns="http://www.w3.org/2000/svg"
 width="700.000000pt" height="700.000000pt" viewBox="0 0 700.000000 700.000000"
 preserveAspectRatio="xMidYMid meet">
<metadata>
Created by potrace 1.11, written by Peter Selinger 2001-2013
</metadata>
<g transform="translate(0.000000,700.000000) scale(0.100000,-0.100000)"
fill="#000000" stroke="none">
<path d="M3335 6989 c-22 -4 -58 -10 -80 -13 -164 -26 -367 -113 -522 -223
-86 -61 -222 -190 -281 -268 -127 -167 -228 -391 -257 -575 -3 -19 -9 -60 -14
-90 -5 -30 -9 -743 -9 -1585 0 -1596 1 -1623 43 -1785 92 -359 330 -664 655
-842 105 -57 308 -127 415 -143 92 -14 341 -14 420 0 305 54 540 177 753 395
174 178 315 456 347 685 4 28 10 59 13 70 4 11 7 729 8 1595 2 1659 4 1615
-41 1792 -122 483 -523 865 -1018 969 -107 23 -351 33 -432 18z m381 -253 c96
-20 184 -51 269 -94 116 -59 122 -65 122 -117 0 -84 53 -130 139 -120 51 5 52
4 86 -38 60 -72 130 -187 135 -220 2 -18 15 -48 28 -67 24 -35 50 -102 59
-153 2 -15 7 -35 10 -45 10 -37 18 -121 21 -224 l2 -106 -29 -6 c-38 -8 -84
-57 -90 -96 -7 -46 23 -104 65 -123 19 -9 39 -17 44 -17 5 0 8 -100 7 -232 -1
-261 -1 -264 -10 -255 -4 4 -24 -3 -45 -15 -46 -26 -63 -63 -60 -127 1 -30 65
-91 95 -91 l22 0 0 -239 c-1 -132 -4 -242 -7 -245 -4 -4 -17 -9 -30 -11 -50
-10 -93 -87 -78 -141 11 -40 51 -80 87 -87 l28 -6 -1 -238 c-2 -265 -2 -256
-13 -249 -4 2 -23 -3 -41 -12 -40 -19 -70 -77 -63 -122 6 -39 52 -88 89 -96
l29 -6 -2 -206 c-2 -303 1 -279 -33 -287 -85 -18 -111 -138 -43 -198 l21 -19
-34 -80 c-32 -75 -93 -180 -140 -238 -34 -43 -158 -165 -200 -197 -46 -35
-156 -103 -167 -103 -5 0 -8 7 -8 16 0 26 -31 70 -60 88 -37 21 -78 20 -117
-4 -55 -33 -73 -88 -48 -146 8 -20 15 -38 15 -39 0 -2 -21 -6 -47 -10 -27 -5
-55 -10 -63 -12 -47 -13 -254 -10 -335 4 -49 9 -91 17 -93 19 -2 1 3 15 11 31
44 85 -33 186 -128 169 -43 -8 -84 -48 -92 -88 -6 -33 -5 -33 -46 -12 -123 64
-296 224 -382 354 -27 41 -66 113 -86 160 l-37 85 24 26 c52 54 47 130 -10
174 -18 14 -40 25 -49 25 -20 0 -19 -8 -22 278 -1 187 0 204 17 213 10 5 18 7
18 4 0 -14 53 31 66 56 38 75 3 150 -82 173 -20 6 -20 12 -20 242 1 200 3 238
16 244 8 4 27 13 41 20 34 15 61 63 61 106 0 45 -40 98 -84 110 l-33 10 0 239
0 239 32 8 c42 11 85 67 85 112 0 58 -39 109 -92 120 l-26 5 0 240 c0 133 3
242 8 242 64 10 112 62 110 119 -1 59 -56 120 -106 120 -12 0 -14 19 -11 120
6 181 45 358 90 412 14 16 25 35 26 41 3 43 10 61 53 127 27 41 66 96 88 122
34 41 42 46 60 37 11 -6 38 -9 61 -6 46 5 96 51 98 90 1 12 2 35 3 51 1 25 10
35 56 63 109 66 249 115 405 141 73 13 279 6 361 -12z"/>
<path d="M3463 6628 c-64 -17 -98 -98 -68 -161 58 -124 243 -61 220 75 -7 37
-51 87 -78 89 -7 0 -19 2 -27 3 -8 2 -30 -1 -47 -6z"/>
<path d="M3100 6266 c-44 -14 -80 -67 -80 -117 0 -29 8 -46 34 -73 32 -34 50
-41 105 -36 79 7 123 112 77 183 -28 42 -84 60 -136 43z"/>
<path d="M3840 6273 c-59 -17 -91 -55 -95 -112 -6 -77 73 -141 146 -121 122
34 113 212 -11 233 -14 2 -32 2 -40 0z"/>
<path d="M2694 5874 c-19 -19 -35 -45 -35 -57 -4 -80 36 -136 101 -139 53 -2
69 3 98 32 76 76 23 200 -86 200 -38 0 -49 -5 -78 -36z"/>
<path d="M3422 5879 c-39 -38 -49 -83 -29 -132 19 -45 57 -70 105 -70 65 0
108 37 118 102 17 105 -118 174 -194 100z"/>
<path d="M4150 5883 c-31 -28 -49 -78 -42 -120 4 -28 57 -83 82 -84 69 -5 86
0 114 27 77 78 28 204 -79 204 -35 0 -52 -6 -75 -27z"/>
<path d="M3082 5534 c-84 -43 -81 -168 5 -209 119 -57 228 99 133 190 -35 34
-93 42 -138 19z"/>
<path d="M3815 5540 c-86 -35 -94 -160 -13 -210 39 -24 69 -25 112 -5 109 52
71 225 -49 224 -16 0 -39 -4 -50 -9z"/>
<path d="M2725 5174 c-42 -21 -66 -58 -67 -103 -1 -94 98 -151 179 -101 40 24
55 53 55 102 -1 51 -33 95 -80 108 -47 13 -51 13 -87 -6z"/>
<path d="M3464 5183 c-12 -2 -34 -18 -50 -34 -47 -49 -37 -144 19 -178 59 -37
143 -15 172 45 44 93 -38 189 -141 167z"/>
<path d="M4175 5176 c-41 -18 -67 -60 -67 -107 1 -49 16 -75 55 -99 81 -50
180 7 179 101 -1 47 -34 94 -75 109 -38 13 -55 12 -92 -4z"/>
<path d="M3110 4823 c-58 -10 -101 -86 -86 -149 12 -45 62 -84 108 -84 89 0
144 75 117 157 -17 52 -79 86 -139 76z"/>
<path d="M3823 4819 c-62 -18 -97 -110 -65 -171 19 -35 63 -58 111 -58 32 0
47 6 74 33 90 91 4 231 -120 196z"/>
<path d="M2743 4458 c-55 -15 -90 -70 -83 -133 12 -112 181 -133 223 -27 38
94 -42 186 -140 160z"/>
<path d="M3478 4462 c-39 -5 -85 -52 -93 -95 -25 -133 159 -195 221 -75 44 85
-29 182 -128 170z"/>
<path d="M4187 4455 c-64 -22 -86 -63 -78 -149 2 -22 58 -70 88 -77 44 -9 90
9 117 44 39 51 38 103 -1 147 -36 40 -79 51 -126 35z"/>
<path d="M3078 4084 c-53 -28 -72 -97 -43 -159 37 -76 153 -81 200 -9 22 33
25 92 6 127 -28 52 -107 72 -163 41z"/>
<path d="M3800 4083 c-51 -35 -66 -77 -49 -136 26 -97 172 -110 214 -20 39 81
-10 167 -97 171 -27 2 -52 -4 -68 -15z"/>
<path d="M2719 3725 c-82 -45 -80 -169 5 -209 41 -20 57 -20 99 -2 43 17 69
59 69 107 -1 49 -16 75 -55 99 -37 23 -81 25 -118 5z"/>
<path d="M3443 3724 c-88 -44 -77 -175 18 -214 65 -28 152 28 157 100 3 45
-24 96 -63 114 -41 20 -71 20 -112 0z"/>
<path d="M4156 3715 c-58 -39 -65 -122 -17 -174 72 -78 201 -27 203 78 1 98
-104 152 -186 96z"/>
<path d="M3105 3372 c-53 -18 -85 -61 -85 -112 1 -72 50 -119 122 -116 54 2
91 30 108 81 28 84 -62 175 -145 147z"/>
<path d="M3817 3366 c-21 -8 -40 -16 -41 -18 -16 -22 -35 -81 -32 -100 3 -12
5 -26 5 -30 1 -3 13 -20 27 -37 67 -80 204 -28 204 79 0 84 -79 136 -163 106z"/>
<path d="M2750 3011 c-54 -13 -90 -56 -92 -112 -2 -69 48 -119 119 -119 38 0
50 5 79 34 19 19 34 42 35 53 0 10 2 25 4 34 4 23 -23 76 -49 92 -28 18 -65
25 -96 18z"/>
<path d="M3460 3007 c-39 -14 -80 -67 -80 -104 0 -65 60 -127 121 -125 66 2
125 68 115 129 -2 16 -5 33 -5 40 -1 16 -60 59 -91 66 -14 3 -41 0 -60 -6z"/>
<path d="M4193 3013 c-30 -6 -83 -59 -85 -86 -6 -94 37 -147 121 -147 30 0 49
7 71 28 94 83 18 227 -107 205z"/>
<path d="M3092 2644 c-40 -16 -72 -68 -72 -116 0 -28 8 -45 34 -72 60 -64 153
-49 191 30 18 38 13 82 -12 121 -25 38 -96 57 -141 37z"/>
<path d="M3838 2652 c-27 -3 -87 -53 -89 -75 -1 -6 -3 -23 -4 -37 -2 -14 4
-39 12 -57 41 -88 164 -89 209 -1 45 86 -27 182 -128 170z"/>
<path d="M2697 2256 c-38 -38 -47 -66 -35 -112 23 -90 131 -119 197 -53 74 74
21 199 -85 199 -36 0 -49 -6 -77 -34z"/>
<path d="M3439 2275 c-57 -31 -74 -131 -31 -179 59 -65 165 -50 198 29 18 44
18 59 -2 101 -28 59 -105 82 -165 49z"/>
<path d="M4144 2256 c-32 -32 -39 -52 -35 -101 4 -53 45 -92 104 -99 48 -6 92
19 115 64 25 52 18 94 -25 136 -28 29 -41 34 -79 34 -39 0 -51 -5 -80 -34z"/>
<path d="M1633 3604 c-65 -33 -65 -32 -60 -562 2 -262 6 -486 9 -497 3 -11 9
-42 12 -70 26 -199 114 -449 229 -650 179 -315 446 -575 767 -747 208 -112
454 -190 665 -214 39 -4 79 -8 90 -10 11 -1 23 -3 28 -3 4 -1 7 -138 7 -305
l0 -305 -308 1 c-254 0 -314 -3 -344 -15 -69 -29 -91 -127 -42 -180 14 -16 37
-32 51 -38 14 -5 328 -9 764 -9 810 0 792 -1 823 59 21 39 20 95 0 127 -35 53
-49 55 -389 55 l-315 1 0 304 c0 263 2 304 15 305 8 1 18 2 23 3 4 1 41 6 82
10 328 35 708 197 975 416 386 316 615 723 695 1230 15 97 18 185 19 563 2
501 2 500 -66 532 -62 30 -140 0 -164 -62 -4 -12 -9 -212 -10 -445 -1 -233 -5
-450 -9 -483 -4 -33 -11 -85 -15 -115 -15 -120 -73 -303 -141 -450 -126 -269
-354 -528 -614 -695 -126 -81 -361 -186 -470 -209 -14 -3 -51 -12 -83 -20 -33
-8 -87 -18 -120 -21 -34 -4 -71 -9 -82 -11 -23 -5 -256 -5 -300 0 -226 24
-411 75 -590 163 -451 222 -778 623 -900 1103 -46 182 -52 261 -54 740 -2 450
-4 468 -51 497 -34 22 -92 25 -127 7z"/>
</g>
</svg>
